<svg width="134" height="134" viewBox="0 0 134 134" fill="none" xmlns="http://www.w3.org/2000/svg">
<mask id="path-1-inside-1_6787_113" fill="white">
<path d="M123.106 66.7277C123.106 55.5771 119.799 44.677 113.604 35.4057C107.409 26.1344 98.6043 18.9083 88.3026 14.6411C78.0008 10.374 66.6651 9.25754 55.7288 11.4329C44.7926 13.6083 34.747 18.9777 26.8623 26.8624C18.9777 34.747 13.6082 44.7926 11.4329 55.7288C9.25752 66.6651 10.374 78.0009 14.6411 88.3026C18.9082 98.6043 26.1344 107.409 35.4057 113.604C44.677 119.799 55.5771 123.106 66.7276 123.106L66.7276 120.287C56.1346 120.287 45.7795 117.146 36.9718 111.26C28.164 105.375 21.2992 97.0105 17.2454 87.2239C13.1917 77.4372 12.131 66.6682 14.1976 56.2788C16.2642 45.8893 21.3652 36.346 28.8556 28.8556C36.346 21.3652 45.8893 16.2642 56.2788 14.1976C66.6682 12.131 77.4372 13.1917 87.2238 17.2455C97.0105 21.2992 105.375 28.164 111.26 36.9718C117.146 45.7795 120.287 56.1347 120.287 66.7277H123.106Z"/>
</mask>
<path d="M123.106 66.7277C123.106 55.5771 119.799 44.677 113.604 35.4057C107.409 26.1344 98.6043 18.9083 88.3026 14.6411C78.0008 10.374 66.6651 9.25754 55.7288 11.4329C44.7926 13.6083 34.747 18.9777 26.8623 26.8624C18.9777 34.747 13.6082 44.7926 11.4329 55.7288C9.25752 66.6651 10.374 78.0009 14.6411 88.3026C18.9082 98.6043 26.1344 107.409 35.4057 113.604C44.677 119.799 55.5771 123.106 66.7276 123.106L66.7276 120.287C56.1346 120.287 45.7795 117.146 36.9718 111.26C28.164 105.375 21.2992 97.0105 17.2454 87.2239C13.1917 77.4372 12.131 66.6682 14.1976 56.2788C16.2642 45.8893 21.3652 36.346 28.8556 28.8556C36.346 21.3652 45.8893 16.2642 56.2788 14.1976C66.6682 12.131 77.4372 13.1917 87.2238 17.2455C97.0105 21.2992 105.375 28.164 111.26 36.9718C117.146 45.7795 120.287 56.1347 120.287 66.7277H123.106Z" stroke="white" stroke-width="10" mask="url(#path-1-inside-1_6787_113)"/>
<mask id="path-2-inside-2_6787_113" fill="white">
<path d="M106.22 67C106.22 88.6604 88.6603 106.22 67 106.22C45.3397 106.22 27.7805 88.6604 27.7805 67C27.7805 45.3397 45.3397 27.7805 67 27.7805C88.6603 27.7805 106.22 45.3397 106.22 67ZM29.7415 67C29.7415 87.5774 46.4227 104.259 67 104.259C87.5773 104.259 104.259 87.5774 104.259 67C104.259 46.4227 87.5773 29.7415 67 29.7415C46.4227 29.7415 29.7415 46.4227 29.7415 67Z"/>
</mask>
<path d="M106.22 67C106.22 88.6604 88.6603 106.22 67 106.22C45.3397 106.22 27.7805 88.6604 27.7805 67C27.7805 45.3397 45.3397 27.7805 67 27.7805C88.6603 27.7805 106.22 45.3397 106.22 67ZM29.7415 67C29.7415 87.5774 46.4227 104.259 67 104.259C87.5773 104.259 104.259 87.5774 104.259 67C104.259 46.4227 87.5773 29.7415 67 29.7415C46.4227 29.7415 29.7415 46.4227 29.7415 67Z" stroke="white" stroke-width="10" mask="url(#path-2-inside-2_6787_113)"/>
<path d="M67 53.3821L78.7934 73.809H55.2066L67 53.3821Z" fill="white"/>
</svg>
